<svg width="654" height="507" viewBox="0 0 654 507" fill="none" xmlns="http://www.w3.org/2000/svg">
<circle cx="464.5" cy="188.5" r="97.5" fill="#FFE632"/>
<line x1="533.837" y1="64.895" x2="555.895" y2="32.1633" stroke="#FFE632" stroke-width="16" stroke-linecap="round" stroke-linejoin="round"/>
<line x1="645.473" y1="188" x2="606.002" y2="188" stroke="#FFE632" stroke-width="16" stroke-linecap="round" stroke-linejoin="round"/>
<line x1="465" y1="47.4727" x2="465" y2="8.00195" stroke="#FFE632" stroke-width="16" stroke-linecap="round" stroke-linejoin="round"/>
<line x1="584.672" y1="115.449" x2="620.761" y2="99.4644" stroke="#FFE632" stroke-width="16" stroke-linecap="round" stroke-linejoin="round"/>
<line x1="324.148" y1="187.719" x2="284.703" y2="186.282" stroke="#FFE632" stroke-width="16" stroke-linecap="round" stroke-linejoin="round"/>
<line x1="373.019" y1="33.5661" x2="393.871" y2="67.0791" stroke="#FFE632" stroke-width="16" stroke-linecap="round" stroke-linejoin="round"/>
<line x1="342.532" y1="255.019" x2="309.019" y2="275.871" stroke="#FFE632" stroke-width="16" stroke-linecap="round" stroke-linejoin="round"/>
<line x1="341.753" y1="121.312" x2="309.115" y2="99.1146" stroke="#FFE632" stroke-width="16" stroke-linecap="round" stroke-linejoin="round"/>
<line x1="535.833" y1="309.262" x2="554.51" y2="344.035" stroke="#FFE632" stroke-width="16" stroke-linecap="round" stroke-linejoin="round"/>
<line x1="374.651" y1="343.271" x2="393.049" y2="308.351" stroke="#FFE632" stroke-width="16" stroke-linecap="round" stroke-linejoin="round"/>
<line x1="587.807" y1="256.651" x2="622.727" y2="275.049" stroke="#FFE632" stroke-width="16" stroke-linecap="round" stroke-linejoin="round"/>
<line x1="465" y1="329" x2="465" y2="368.471" stroke="#FFE632" stroke-width="16" stroke-linecap="round" stroke-linejoin="round"/>
<circle cx="270.992" cy="269.332" r="150.332" fill="#70CDEE"/>
<ellipse cx="502.425" cy="372.192" rx="128.574" ry="130.552" fill="#70CDEE"/>
<rect y="300.984" width="589.461" height="205.718" rx="102.859" fill="#70CDEE"/>
</svg>
